<svg xmlns="http://www.w3.org/2000/svg" xmlns:xlink="http://www.w3.org/1999/xlink" width="2200" zoomAndPan="magnify" viewBox="0 0 1650 599.999999" height="800" preserveAspectRatio="xMidYMid meet" version="1.0"><defs><g/><clipPath id="bdd647fde7"><path d="M 1254.683594 0 L 1635 0 L 1635 429.75 L 1254.683594 429.75 Z M 1254.683594 0 " clip-rule="nonzero"/></clipPath></defs><g clip-path="url(#bdd647fde7)"><path fill="#737373" d="M 1294.875 353.125 C 1294.875 353.125 1286.121094 348.515625 1276.097656 353.953125 C 1276.097656 353.953125 1286.039062 346.449219 1295.375 348.058594 C 1295.375 348.058594 1290.898438 335.882812 1271.480469 334.039062 C 1271.480469 334.039062 1287.601562 329.28125 1299.8125 338.292969 C 1299.8125 338.292969 1280.625 307.167969 1286.730469 282.625 C 1286.730469 282.625 1293.394531 295.269531 1304.554688 297.488281 C 1304.554688 297.488281 1290.496094 271.167969 1296.488281 255.589844 C 1302.484375 240.011719 1335.660156 217.101562 1335.660156 217.101562 C 1335.660156 217.101562 1337.84375 234.023438 1353.667969 249.859375 C 1353.667969 249.859375 1344.96875 226.429688 1347.207031 208.480469 C 1349.445312 190.527344 1410.941406 171.761719 1410.941406 171.761719 C 1410.941406 171.761719 1411.375 192.980469 1425.570312 202.546875 C 1425.570312 202.546875 1419.542969 170.59375 1429.433594 165.53125 C 1439.324219 160.472656 1502.21875 137.21875 1513.589844 116.746094 L 1516.777344 148.792969 C 1516.777344 148.792969 1515.304688 127.226562 1529.433594 114.234375 C 1543.5625 101.238281 1579.867188 81.996094 1582.941406 57.277344 L 1587.976562 82.617188 L 1590.359375 54.316406 C 1590.359375 54.316406 1626.214844 28.851562 1619.65625 0 C 1619.65625 0 1649.996094 38.769531 1622.773438 115.621094 L 1575.539062 136.230469 L 1615.191406 127.839844 C 1615.191406 127.839844 1591.121094 181.640625 1515.527344 187.625 C 1515.527344 187.625 1531.777344 191.703125 1564.226562 181.738281 C 1564.226562 181.738281 1536.941406 243.675781 1438.902344 248.949219 L 1488.644531 251.054688 C 1488.644531 251.054688 1452.613281 318.539062 1370.300781 305.003906 C 1370.300781 305.003906 1388.449219 318.09375 1408.972656 314.601562 C 1408.972656 314.601562 1383.183594 346.058594 1333.644531 330.828125 C 1333.644531 330.828125 1341.570312 333.433594 1342.527344 343.070312 C 1342.527344 343.070312 1333.328125 332.714844 1323.421875 335.519531 C 1323.421875 335.519531 1330.878906 339.691406 1328.535156 350.261719 C 1328.535156 350.261719 1326.101562 340.972656 1315.949219 341.289062 L 1254.714844 429.691406 C 1254.714844 429.691406 1257.164062 416.382812 1262.492188 406.757812 C 1267.820312 397.132812 1313.484375 322.789062 1385.429688 267.503906 C 1457.375 212.21875 1535.800781 171.492188 1552.96875 136.839844 C 1552.96875 136.839844 1523.074219 169.949219 1462.921875 204.761719 C 1402.765625 239.570312 1326.273438 301.210938 1294.875 353.125 " fill-opacity="1" fill-rule="nonzero"/></g><g fill="#737373" fill-opacity="1"><g transform="translate(42.564643, 443.895066)"><g><path d="M 197.078125 -366.453125 C 211.253906 -359.453125 222.695312 -350.441406 231.40625 -339.421875 C 240.125 -328.410156 246.234375 -315.695312 249.734375 -301.28125 C 250.398438 -298.144531 250.675781 -294.953125 250.5625 -291.703125 C 250.5625 -290.898438 250.5625 -290.164062 250.5625 -289.5 C 250.5625 -286.914062 249.207031 -285.101562 246.5 -284.0625 C 245.15625 -283.382812 243.898438 -283.210938 242.734375 -283.546875 C 241.566406 -283.890625 240.800781 -284.675781 240.4375 -285.90625 C 239.757812 -288.300781 239.144531 -290.722656 238.59375 -293.171875 C 238.46875 -293.722656 238.34375 -294.335938 238.21875 -295.015625 C 233.613281 -313.484375 224.007812 -329.347656 209.40625 -342.609375 C 190.132812 -360.273438 167.0625 -367.207031 140.1875 -363.40625 C 116.925781 -360.03125 95.664062 -352.082031 76.40625 -339.5625 C 50.320312 -323.0625 28.71875 -302.472656 11.59375 -277.796875 C 6.4375 -270.492188 2.113281 -262.914062 -1.375 -255.0625 C -13.28125 -228.863281 -13.957031 -202.539062 -3.40625 -176.09375 C -0.03125 -167.4375 4.125 -159.269531 9.0625 -151.59375 C 14.007812 -143.925781 19.363281 -136.503906 25.125 -129.328125 C 38.070312 -113.253906 51.972656 -98.003906 66.828125 -83.578125 C 74.804688 -75.847656 82.785156 -68.207031 90.765625 -60.65625 C 102.109375 -49.738281 113.367188 -38.753906 124.546875 -27.703125 C 138.597656 -14.023438 151.359375 0.578125 162.828125 16.109375 C 166.515625 21.078125 169.875 26.226562 172.90625 31.5625 C 175.945312 36.90625 178.328125 42.554688 180.046875 48.515625 C 185.078125 64.523438 180.015625 76.921875 164.859375 85.703125 C 156.878906 90.609375 148.257812 93.519531 139 94.4375 C 97.632812 97.695312 64.738281 83.859375 40.3125 52.921875 C 34.113281 44.828125 30.203125 36.222656 28.578125 27.109375 C 26.953125 17.992188 27.03125 8.648438 28.8125 -0.921875 C 32.550781 -22.640625 41.847656 -42.09375 56.703125 -59.28125 C 58.234375 -61 59.675781 -62.6875 61.03125 -64.34375 C 61.519531 -65.132812 62.101562 -65.867188 62.78125 -66.546875 C 61.300781 -69.242188 59.488281 -71.484375 57.34375 -73.265625 C 56.664062 -73.941406 56.050781 -74.523438 55.5 -75.015625 C 39.851562 -90.421875 25.21875 -106.5625 11.59375 -123.4375 C 2.144531 -135.03125 -5.890625 -147.457031 -12.515625 -160.71875 C -29.390625 -194.46875 -28.992188 -228.097656 -11.328125 -261.609375 C -1.566406 -279.273438 10.289062 -295.117188 24.25 -309.140625 C 38.21875 -323.160156 54.035156 -335.664062 71.703125 -346.65625 C 89.003906 -357.457031 107.785156 -365.28125 128.046875 -370.125 C 136.390625 -372.15625 144.851562 -373.429688 153.4375 -373.953125 C 162.03125 -374.472656 170.625 -373.9375 179.21875 -372.34375 C 185.476562 -371.113281 191.429688 -369.148438 197.078125 -366.453125 Z M 67.109375 -58.8125 C 66.003906 -57.769531 64.988281 -56.578125 64.0625 -55.234375 C 57.5625 -46.578125 52.5625 -37.382812 49.0625 -27.65625 C 45.5625 -17.9375 43.195312 -7.828125 41.96875 2.671875 C 39.632812 23.898438 46.570312 42.003906 62.78125 56.984375 C 78.300781 71.585938 97.015625 80.632812 118.921875 84.125 C 128.929688 86.03125 138.90625 85.753906 148.84375 83.296875 C 164.125 79.367188 170.015625 70.195312 166.515625 55.78125 C 164.734375 49.03125 161.972656 42.554688 158.234375 36.359375 C 152.523438 26.722656 145.957031 17.609375 138.53125 9.015625 C 129.507812 -1.785156 119.96875 -12.21875 109.90625 -22.28125 C 99.84375 -32.34375 89.625 -42.25 79.25 -52 C 76.914062 -54.15625 74.613281 -56.304688 72.34375 -58.453125 C 71.789062 -59.003906 71.117188 -59.398438 70.328125 -59.640625 C 70.015625 -59.953125 69.675781 -60.171875 69.3125 -60.296875 C 69.007812 -60.171875 68.734375 -60.015625 68.484375 -59.828125 C 67.929688 -59.585938 67.472656 -59.25 67.109375 -58.8125 Z M 67.109375 -58.8125 "/></g></g></g><g fill="#737373" fill-opacity="1"><g transform="translate(211.286073, 443.895066)"><g><path d="M 8.921875 -8.1875 C 7.703125 -8.070312 6.351562 -8.929688 4.875 -10.765625 C 3.40625 -12.609375 2.117188 -15.785156 1.015625 -20.296875 C -0.0859375 -24.804688 -0.488281 -31.050781 -0.1875 -39.03125 C -0.1875 -39.820312 -0.1875 -40.832031 -0.1875 -42.0625 C -0.1875 -45.132812 -0.0507812 -48.738281 0.21875 -52.875 C 0.5 -57.019531 1.097656 -60.734375 2.015625 -64.015625 C 2.941406 -67.296875 4.359375 -69.273438 6.265625 -69.953125 C 11.960938 -71.492188 15.0625 -69.46875 15.5625 -63.875 C 15.5625 -62.15625 15.5 -60.410156 15.375 -58.640625 C 15.25 -57.835938 15.1875 -56.976562 15.1875 -56.0625 C 15.0625 -53.476562 14.9375 -50.960938 14.8125 -48.515625 C 14.8125 -46.359375 14.722656 -44.269531 14.546875 -42.25 C 14.546875 -40.894531 14.546875 -38.929688 14.546875 -36.359375 C 14.722656 -32.734375 14.765625 -28.789062 14.671875 -24.53125 C 14.585938 -20.269531 14.113281 -16.554688 13.25 -13.390625 C 12.394531 -10.234375 10.953125 -8.5 8.921875 -8.1875 Z M 14.359375 -89.015625 C 13.679688 -88.335938 12.742188 -87.90625 11.546875 -87.71875 C 10.347656 -87.539062 9.414062 -87.632812 8.75 -88 C 8.070312 -88.675781 7.625 -89.425781 7.40625 -90.25 C 7.195312 -91.082031 7.09375 -92.082031 7.09375 -93.25 C 7.207031 -93.550781 7.265625 -93.828125 7.265625 -94.078125 C 7.390625 -95.179688 7.664062 -96.253906 8.09375 -97.296875 C 9.320312 -100.421875 11.8125 -101.769531 15.5625 -101.34375 C 16.90625 -101.21875 17.914062 -100.679688 18.59375 -99.734375 C 19.269531 -98.785156 19.484375 -97.726562 19.234375 -96.5625 C 18.316406 -93.675781 16.691406 -91.160156 14.359375 -89.015625 Z M 14.359375 -89.015625 "/></g></g></g><g fill="#737373" fill-opacity="1"><g transform="translate(236.322744, 443.895066)"><g><path d="M 63.234375 -63.140625 C 64.710938 -63.265625 66.019531 -63.21875 67.15625 -63 C 68.289062 -62.789062 68.859375 -62.285156 68.859375 -61.484375 C 69.410156 -52.953125 69.207031 -42.273438 68.25 -29.453125 C 67.300781 -16.628906 65.273438 -2.765625 62.171875 12.140625 C 59.078125 27.054688 54.691406 41.96875 49.015625 56.875 C 43.335938 71.789062 36.109375 85.597656 27.328125 98.296875 C 18.554688 111.003906 7.957031 121.5 -4.46875 129.78125 C -16.894531 138.070312 -31.390625 143.109375 -47.953125 144.890625 C -60.535156 145.929688 -70.875 144.164062 -78.96875 139.59375 C -87.070312 135.019531 -91.460938 127.835938 -92.140625 118.046875 C -92.816406 108.265625 -88.179688 96.082031 -78.234375 81.5 C -68.296875 66.925781 -51.609375 50.097656 -28.171875 31.015625 C -15.710938 21.328125 -3.484375 12.707031 8.515625 5.15625 C 20.515625 -2.394531 30.71875 -8.6875 39.125 -13.71875 C 41.394531 -15.0625 43.476562 -16.257812 45.375 -17.3125 C 51.207031 -20.5625 53.910156 -25.285156 53.484375 -31.484375 C 53.484375 -32.160156 53.484375 -33.109375 53.484375 -34.328125 C 53.359375 -36.109375 53.296875 -38.070312 53.296875 -40.21875 C 49.796875 -34.695312 44.867188 -29.664062 38.515625 -25.125 C 32.171875 -20.582031 25.648438 -17.34375 18.953125 -15.40625 C 12.265625 -13.476562 6.554688 -13.585938 1.828125 -15.734375 C -2.890625 -17.890625 -5.3125 -22.894531 -5.4375 -30.75 C -5.3125 -34.789062 -4.175781 -38.5 -2.03125 -41.875 C 3.125 -50.894531 10.210938 -57.984375 19.234375 -63.140625 C 22.609375 -64.984375 26.6875 -66.316406 31.46875 -67.140625 C 36.257812 -67.972656 40.894531 -67.910156 45.375 -66.953125 C 49.851562 -66.003906 53.445312 -63.90625 56.15625 -60.65625 C 56.820312 -61.644531 57.785156 -62.304688 59.046875 -62.640625 C 60.304688 -62.972656 61.488281 -63.140625 62.59375 -63.140625 C 62.84375 -63.140625 63.054688 -63.140625 63.234375 -63.140625 Z M 41.328125 -41.421875 C 46.972656 -47.128906 50.070312 -51.515625 50.625 -54.578125 C 49.28125 -57.035156 47.195312 -58.523438 44.375 -59.046875 C 41.550781 -59.566406 38.648438 -59.535156 35.671875 -58.953125 C 32.691406 -58.367188 30.191406 -57.460938 28.171875 -56.234375 C 22.640625 -52.742188 18.554688 -48.492188 15.921875 -43.484375 C 13.285156 -38.484375 12.300781 -34.21875 12.96875 -30.6875 C 13.644531 -27.164062 16.285156 -25.957031 20.890625 -27.0625 C 25.492188 -28.164062 32.304688 -32.953125 41.328125 -41.421875 Z M 49.0625 -1.109375 C 49.0625 -1.285156 49.125 -1.4375 49.25 -1.5625 C 49.375 -2.363281 49.492188 -3.40625 49.609375 -4.6875 C 49.734375 -5.976562 49.703125 -6.992188 49.515625 -7.734375 C 49.335938 -8.472656 48.847656 -8.566406 48.046875 -8.015625 C 46.941406 -7.335938 45.773438 -6.597656 44.546875 -5.796875 C 36.328125 -0.523438 25.523438 6.832031 12.140625 16.28125 C -1.234375 25.738281 -14.789062 36.390625 -28.53125 48.234375 C -31.226562 50.691406 -35.109375 54.3125 -40.171875 59.09375 C -45.234375 63.882812 -50.570312 69.347656 -56.1875 75.484375 C -61.8125 81.617188 -66.816406 87.96875 -71.203125 94.53125 C -75.585938 101.101562 -78.484375 107.285156 -79.890625 113.078125 C -81.304688 118.878906 -80.390625 123.867188 -77.140625 128.046875 C -72.835938 133.078125 -66.191406 135.253906 -57.203125 134.578125 C -48.210938 133.898438 -38.117188 130.523438 -26.921875 124.453125 C -15.722656 118.378906 -4.722656 109.632812 6.078125 98.21875 C 16.878906 86.800781 26.160156 72.789062 33.921875 56.1875 C 41.679688 39.59375 46.726562 20.492188 49.0625 -1.109375 Z M 49.0625 -1.109375 "/></g></g></g><g fill="#737373" fill-opacity="1"><g transform="translate(318.33629, 443.895066)"><g><path d="M 135.6875 -55.78125 C 138.382812 -57.007812 139.945312 -57.222656 140.375 -56.421875 C 140.863281 -54.828125 139.421875 -51.957031 136.046875 -47.8125 C 132.671875 -43.675781 128.097656 -39.457031 122.328125 -35.15625 C 108.398438 -25.46875 96.679688 -19.671875 87.171875 -17.765625 C 77.660156 -15.859375 69.894531 -16.453125 63.875 -19.546875 C 57.863281 -22.648438 53.382812 -26.90625 50.4375 -32.3125 C 46.945312 -38.382812 44.769531 -44.394531 43.90625 -50.34375 C 42.738281 -56.851562 41.140625 -60.535156 39.109375 -61.390625 C 37.085938 -62.253906 34.925781 -61.332031 32.625 -58.625 C 30.320312 -55.925781 28.082031 -52.382812 25.90625 -48 C 23.726562 -43.613281 21.929688 -39.332031 20.515625 -35.15625 C 19.109375 -30.988281 18.34375 -27.832031 18.21875 -25.6875 C 17.789062 -24.457031 17.394531 -23.289062 17.03125 -22.1875 C 16.476562 -20.46875 15.863281 -18.78125 15.1875 -17.125 C 13.40625 -12.519531 10.304688 -10.832031 5.890625 -12.0625 C 3.429688 -12.488281 2.019531 -13.988281 1.65625 -16.5625 C 1.46875 -18.28125 1.375 -20.09375 1.375 -22 C 1.375 -23.46875 1.316406 -25.03125 1.203125 -26.6875 C 0.953125 -37.738281 0.675781 -48.878906 0.375 -60.109375 C 0.375 -61.460938 1.015625 -62.398438 2.296875 -62.921875 C 3.585938 -63.441406 5.078125 -63.671875 6.765625 -63.609375 C 8.453125 -63.546875 9.9375 -63.285156 11.21875 -62.828125 C 12.507812 -62.367188 13.21875 -61.707031 13.34375 -60.84375 C 13.65625 -59 13.8125 -57.40625 13.8125 -56.0625 C 13.8125 -54.15625 13.929688 -52.785156 14.171875 -51.953125 C 14.421875 -51.128906 14.988281 -51.160156 15.875 -52.046875 C 16.769531 -52.941406 18.289062 -54.800781 20.4375 -57.625 C 23.8125 -63.019531 28.078125 -67.625 33.234375 -71.4375 C 35.503906 -73.144531 38.1875 -74.382812 41.28125 -75.15625 C 44.382812 -75.925781 47.378906 -76.035156 50.265625 -75.484375 C 53.328125 -74.679688 55.734375 -72.929688 57.484375 -70.234375 C 59.234375 -67.535156 60.550781 -64.453125 61.4375 -60.984375 C 62.332031 -57.515625 62.992188 -54.304688 63.421875 -51.359375 C 63.546875 -50.566406 63.671875 -49.894531 63.796875 -49.34375 C 64.460938 -45.414062 65.363281 -41.835938 66.5 -38.609375 C 67.632812 -35.390625 69.488281 -32.859375 72.0625 -31.015625 C 74.644531 -29.179688 78.421875 -28.476562 83.390625 -28.90625 C 94.191406 -29.695312 102.769531 -31.945312 109.125 -35.65625 C 115.476562 -39.375 120.832031 -43.320312 125.1875 -47.5 C 125.863281 -48.050781 126.445312 -48.601562 126.9375 -49.15625 C 127.914062 -49.832031 128.742188 -50.503906 129.421875 -51.171875 C 131.015625 -52.890625 133.101562 -54.425781 135.6875 -55.78125 Z M 135.6875 -55.78125 "/></g></g></g><g fill="#737373" fill-opacity="1"><g transform="translate(446.465139, 443.895066)"><g><path d="M 136.046875 -53.203125 C 137.148438 -54.671875 138.316406 -55.742188 139.546875 -56.421875 C 140.773438 -57.097656 141.507812 -57.097656 141.75 -56.421875 C 142 -55.742188 141.328125 -54.117188 139.734375 -51.546875 C 136.109375 -46.148438 130.78125 -41.023438 123.75 -36.171875 C 116.726562 -31.328125 108.96875 -27.1875 100.46875 -23.75 C 91.96875 -20.3125 83.664062 -18.039062 75.5625 -16.9375 C 67.46875 -15.832031 60.613281 -16.367188 55 -18.546875 C 49.382812 -20.722656 45.898438 -24.972656 44.546875 -31.296875 C 39.828125 -23.628906 34.226562 -17.628906 27.75 -13.296875 C 21.28125 -8.972656 15.128906 -7.148438 9.296875 -7.828125 C 2.671875 -8.742188 -1.742188 -11.226562 -3.953125 -15.28125 C -6.160156 -19.332031 -6.894531 -23.992188 -6.15625 -29.265625 C -5.425781 -34.546875 -3.832031 -39.550781 -1.375 -44.28125 C 0.457031 -47.894531 3.0625 -51.265625 6.4375 -54.390625 C 9.8125 -57.523438 13.34375 -59.953125 17.03125 -61.671875 C 21.632812 -64.003906 26.25 -65.0625 30.875 -64.84375 C 35.507812 -64.632812 40.46875 -63.117188 45.75 -60.296875 C 45.75 -60.296875 45.8125 -60.414062 45.9375 -60.65625 C 45.9375 -61.207031 46.039062 -61.851562 46.25 -62.59375 C 46.46875 -63.332031 46.914062 -63.976562 47.59375 -64.53125 C 48.507812 -65.195312 49.6875 -65.726562 51.125 -66.125 C 52.570312 -66.53125 53.972656 -66.609375 55.328125 -66.359375 C 57.472656 -65.929688 58.804688 -64.84375 59.328125 -63.09375 C 59.847656 -61.34375 59.9375 -59.425781 59.59375 -57.34375 C 59.257812 -55.257812 58.910156 -53.476562 58.546875 -52 C 58.421875 -51.695312 58.359375 -51.421875 58.359375 -51.171875 C 56.148438 -42.273438 56.945312 -36.03125 60.75 -32.4375 C 64.550781 -28.851562 70.054688 -27.195312 77.265625 -27.46875 C 84.484375 -27.75 92.140625 -29.269531 100.234375 -32.03125 C 108.335938 -34.789062 115.703125 -38.085938 122.328125 -41.921875 C 128.960938 -45.765625 133.535156 -49.523438 136.046875 -53.203125 Z M 11.96875 -19.796875 C 14.789062 -17.890625 17.828125 -18.085938 21.078125 -20.390625 C 24.328125 -22.691406 27.5 -26.003906 30.59375 -30.328125 C 33.695312 -34.648438 36.257812 -38.957031 38.28125 -43.25 C 40.3125 -47.550781 41.453125 -50.804688 41.703125 -53.015625 C 35.253906 -56.515625 29.726562 -57.144531 25.125 -54.90625 C 20.519531 -52.664062 16.929688 -49.085938 14.359375 -44.171875 C 11.785156 -39.265625 10.296875 -34.40625 9.890625 -29.59375 C 9.492188 -24.78125 10.1875 -21.515625 11.96875 -19.796875 Z M 11.96875 -19.796875 "/></g></g></g><g fill="#737373" fill-opacity="1"><g transform="translate(578.091757, 443.895066)"><g><path d="M 45.203125 -106.875 C 45.992188 -106.75 46.523438 -106.175781 46.796875 -105.15625 C 47.078125 -104.144531 47.078125 -103.085938 46.796875 -101.984375 C 46.523438 -100.878906 45.992188 -100.328125 45.203125 -100.328125 L 15.46875 -100.609375 L 15.46875 -99.78125 C 15.34375 -95.425781 15.066406 -90.207031 14.640625 -84.125 C 13.960938 -71.300781 13.625 -58.296875 13.625 -45.109375 C 13.625 -40.628906 13.929688 -34.445312 14.546875 -26.5625 C 15.160156 -18.675781 16.414062 -11.632812 18.3125 -5.4375 C 18.4375 -5 18.835938 -4.226562 19.515625 -3.125 C 20.316406 -1.78125 21.082031 -0.265625 21.8125 1.421875 C 22.550781 3.109375 22.890625 4.488281 22.828125 5.5625 C 22.765625 6.644531 21.9375 6.96875 20.34375 6.53125 C 15.0625 4.8125 11.039062 0.609375 8.28125 -6.078125 C 5.519531 -12.765625 3.554688 -20.570312 2.390625 -29.5 C 1.222656 -38.425781 0.609375 -47.140625 0.546875 -55.640625 C 0.484375 -64.140625 0.578125 -71.03125 0.828125 -76.3125 C 1.015625 -79.925781 1.164062 -83.546875 1.28125 -87.171875 C 1.40625 -91.773438 1.53125 -96.316406 1.65625 -100.796875 L -20.796875 -101.15625 C -22.703125 -101.15625 -23.789062 -101.523438 -24.0625 -102.265625 C -24.34375 -103.003906 -24.144531 -103.753906 -23.46875 -104.515625 C -22.789062 -105.285156 -21.898438 -105.734375 -20.796875 -105.859375 L 1.84375 -106.21875 L 3.3125 -127.953125 C 3.5625 -131.441406 3.835938 -135 4.140625 -138.625 C 4.140625 -140.53125 4.203125 -142.429688 4.328125 -144.328125 C 4.328125 -147.148438 5 -149.789062 6.34375 -152.25 C 7.945312 -154.394531 9.914062 -155.191406 12.25 -154.640625 C 14.269531 -153.960938 15.398438 -152.550781 15.640625 -150.40625 C 15.890625 -146.90625 16.015625 -143.378906 16.015625 -139.828125 C 16.015625 -137.796875 16.015625 -135.769531 16.015625 -133.75 C 16.015625 -131.476562 16.015625 -129.207031 16.015625 -126.9375 L 15.46875 -106.40625 Z M 45.203125 -106.875 "/></g></g></g><g fill="#737373" fill-opacity="1"><g transform="translate(611.504702, 443.895066)"><g><path d="M 20.625 -16.5625 C 15.21875 -16.6875 10.828125 -19.109375 7.453125 -23.828125 C 4.078125 -28.554688 1.957031 -34.523438 1.09375 -41.734375 C 0.238281 -48.953125 0.945312 -56.332031 3.21875 -63.875 C 3.769531 -66.207031 5.273438 -67.894531 7.734375 -68.9375 C 9.453125 -69.488281 11.226562 -69.394531 13.0625 -68.65625 C 14.90625 -67.925781 15.890625 -66.671875 16.015625 -64.890625 C 16.015625 -63.296875 15.863281 -61.703125 15.5625 -60.109375 C 15.3125 -58.878906 15.125 -57.710938 15 -56.609375 C 14.695312 -52.191406 14.789062 -47.34375 15.28125 -42.0625 C 15.769531 -36.789062 17.148438 -32.25 19.421875 -28.4375 C 21.753906 -25.5 24.332031 -25.148438 27.15625 -27.390625 C 29.976562 -29.628906 32.460938 -33.109375 34.609375 -37.828125 C 36.265625 -41.578125 37.550781 -45.304688 38.46875 -49.015625 C 39.394531 -52.722656 40.007812 -55.59375 40.3125 -57.625 C 40.5625 -58.414062 40.6875 -58.96875 40.6875 -59.28125 C 41.113281 -60.875 41.507812 -62.5 41.875 -64.15625 C 42.550781 -66.300781 43.226562 -68.445312 43.90625 -70.59375 C 45.132812 -74.769531 48.109375 -76.519531 52.828125 -75.84375 C 55.648438 -75.601562 57.21875 -74.191406 57.53125 -71.609375 C 57.78125 -68.109375 57.84375 -64.613281 57.71875 -61.125 C 57.59375 -59.582031 57.53125 -58.078125 57.53125 -56.609375 C 57.101562 -50.410156 56.960938 -43.828125 57.109375 -36.859375 C 57.265625 -29.898438 58.414062 -24.148438 60.5625 -19.609375 C 60.8125 -19.054688 60.90625 -18.242188 60.84375 -17.171875 C 60.78125 -16.097656 60.441406 -15.050781 59.828125 -14.03125 C 59.210938 -13.019531 58.226562 -12.40625 56.875 -12.1875 C 55.53125 -11.976562 53.722656 -12.550781 51.453125 -13.90625 C 48.078125 -16.050781 45.910156 -18.976562 44.953125 -22.6875 C 44.003906 -26.40625 43.53125 -30.007812 43.53125 -33.5 C 43.414062 -35.53125 43.296875 -37.3125 43.171875 -38.84375 C 41.941406 -31.789062 39.160156 -26.34375 34.828125 -22.5 C 30.503906 -18.664062 25.769531 -16.6875 20.625 -16.5625 Z M 20.625 -16.5625 "/></g></g></g><g fill="#737373" fill-opacity="1"><g transform="translate(680.539642, 443.895066)"><g><path d="M 58.734375 -44.09375 C 59.890625 -46.488281 60.679688 -47.59375 61.109375 -47.40625 C 61.546875 -47.21875 61.65625 -46.25 61.4375 -44.5 C 61.226562 -42.75 60.847656 -40.769531 60.296875 -38.5625 C 59.492188 -35.1875 58.109375 -31.273438 56.140625 -26.828125 C 54.179688 -22.378906 52.003906 -18.347656 49.609375 -14.734375 C 46.054688 -9.703125 41.65625 -5.910156 36.40625 -3.359375 C 31.15625 -0.816406 26.394531 -0.1875 22.125 -1.46875 C 17.863281 -2.757812 15.398438 -6.78125 14.734375 -13.53125 C 14.609375 -19.175781 15.097656 -25.375 16.203125 -32.125 C 16.566406 -34.945312 16.960938 -37.707031 17.390625 -40.40625 C 17.390625 -41.382812 17.144531 -42.132812 16.65625 -42.65625 C 16.164062 -43.1875 15.523438 -43.390625 14.734375 -43.265625 C 14.179688 -43.265625 13.566406 -43.265625 12.890625 -43.265625 C 9.515625 -42.710938 6.078125 -42.773438 2.578125 -43.453125 C -1.597656 -44.671875 -4.019531 -46.738281 -4.6875 -49.65625 C -5.363281 -52.570312 -5.304688 -56.394531 -4.515625 -61.125 C -4.078125 -64.5 -2.816406 -67.03125 -0.734375 -68.71875 C 1.347656 -70.40625 3.800781 -71.09375 6.625 -70.78125 C 10.550781 -70.414062 12.453125 -68.910156 12.328125 -66.265625 C 12.210938 -63.628906 11.476562 -60.8125 10.125 -57.8125 C 8.894531 -55.289062 8.25 -53.1875 8.1875 -51.5 C 8.125 -49.8125 9.566406 -49.210938 12.515625 -49.703125 C 13.191406 -49.890625 13.929688 -50.101562 14.734375 -50.34375 C 15.835938 -50.78125 17.09375 -51.164062 18.5 -51.5 C 19.914062 -51.832031 21.757812 -51.910156 24.03125 -51.734375 C 26.726562 -51.609375 28.519531 -50.363281 29.40625 -48 C 30.300781 -45.632812 30.6875 -42.671875 30.5625 -39.109375 C 30.4375 -35.554688 30.097656 -31.941406 29.546875 -28.265625 C 28.867188 -23.660156 28.53125 -19.710938 28.53125 -16.421875 C 28.53125 -13.140625 29.484375 -11.222656 31.390625 -10.671875 C 33.898438 -10.003906 37.65625 -12.289062 42.65625 -17.53125 C 47.664062 -22.78125 53.023438 -31.632812 58.734375 -44.09375 Z M 58.734375 -44.09375 "/></g></g></g><g fill="#737373" fill-opacity="1"><g transform="translate(736.872154, 443.895066)"><g><path d="M 81.921875 -44.09375 C 83.148438 -44.769531 84.378906 -45.273438 85.609375 -45.609375 C 86.835938 -45.941406 87.617188 -45.910156 87.953125 -45.515625 C 88.285156 -45.117188 87.78125 -44.09375 86.4375 -42.4375 C 82.070312 -37.582031 76.957031 -33.160156 71.09375 -29.171875 C 65.238281 -25.191406 59.273438 -21.789062 53.203125 -18.96875 C 48.359375 -16.8125 43.234375 -15.085938 37.828125 -13.796875 C 32.429688 -12.515625 27.09375 -12.238281 21.8125 -12.96875 C 16.539062 -13.707031 11.753906 -16.039062 7.453125 -19.96875 C 2.296875 -25.125 -0.507812 -31.675781 -0.96875 -39.625 C -1.425781 -47.570312 0.429688 -54.242188 4.609375 -59.640625 C 10.128906 -65.835938 17.109375 -69.828125 25.546875 -71.609375 C 33.984375 -73.390625 41.578125 -72.039062 48.328125 -67.5625 C 51.578125 -65.289062 52.894531 -62.632812 52.28125 -59.59375 C 51.664062 -56.5625 50.039062 -53.722656 47.40625 -51.078125 C 44.769531 -48.441406 41.820312 -46.453125 38.5625 -45.109375 C 33.71875 -43.203125 29.378906 -42.816406 25.546875 -43.953125 C 21.710938 -45.085938 18.71875 -46.609375 16.5625 -48.515625 C 15.03125 -47.960938 14.082031 -45.8125 13.71875 -42.0625 C 12.738281 -35.007812 14.945312 -29.273438 20.34375 -24.859375 C 24.820312 -21.484375 30.46875 -20.5625 37.28125 -22.09375 C 44.09375 -23.625 51.070312 -26.320312 58.21875 -30.1875 C 65.363281 -34.050781 71.734375 -37.734375 77.328125 -41.234375 C 79.035156 -42.160156 80.566406 -43.113281 81.921875 -44.09375 Z M 37.1875 -61.859375 C 36.382812 -62.960938 35.0625 -63.40625 33.21875 -63.1875 C 31.382812 -62.976562 29.5 -62.410156 27.5625 -61.484375 C 25.632812 -60.566406 23.945312 -59.597656 22.5 -58.578125 C 21.0625 -57.566406 20.4375 -56.847656 20.625 -56.421875 C 20.625 -56.179688 20.789062 -55.753906 21.125 -55.140625 C 21.457031 -54.523438 21.960938 -53.878906 22.640625 -53.203125 C 23.316406 -52.523438 24.222656 -52.046875 25.359375 -51.765625 C 26.492188 -51.492188 27.953125 -51.570312 29.734375 -52 C 32.554688 -52.800781 34.535156 -53.84375 35.671875 -55.125 C 36.804688 -56.414062 37.445312 -57.691406 37.59375 -58.953125 C 37.75 -60.210938 37.613281 -61.179688 37.1875 -61.859375 Z M 37.1875 -61.859375 "/></g></g></g><g fill="#737373" fill-opacity="1"><g transform="translate(814.835649, 443.895066)"><g/></g></g><g fill="#737373" fill-opacity="1"><g transform="translate(861.595316, 443.895066)"><g><path d="M 260.78125 -55.78125 C 261.445312 -55.53125 262.023438 -55.207031 262.515625 -54.8125 C 263.015625 -54.414062 263.171875 -53.878906 262.984375 -53.203125 C 262.734375 -52.523438 262.332031 -51.847656 261.78125 -51.171875 C 261.664062 -51.054688 261.515625 -50.84375 261.328125 -50.53125 C 261.265625 -50.40625 261.125 -50.3125 260.90625 -50.25 C 260.695312 -50.195312 260.53125 -50.171875 260.40625 -50.171875 C 256.113281 -50.285156 253.382812 -49.128906 252.21875 -46.703125 C 251.050781 -44.285156 250.375 -41.175781 250.1875 -37.375 C 249.019531 -10.925781 247.671875 15.460938 246.140625 41.796875 C 245.765625 47.617188 245.425781 53.476562 245.125 59.375 C 244.9375 62.5 244.476562 65.535156 243.75 68.484375 C 243.132812 70.941406 241.476562 72.226562 238.78125 72.34375 C 238.226562 72.34375 237.671875 72.25 237.109375 72.0625 C 236.554688 71.882812 236.097656 71.425781 235.734375 70.6875 C 233.523438 66.144531 233.40625 45.035156 235.375 7.359375 C 237.09375 -25.835938 236.046875 -43.632812 232.234375 -46.03125 C 229.660156 -47.6875 223.398438 -48.175781 213.453125 -47.5 L 46.109375 -35.625 C 45.191406 -35.5625 44.179688 -35.53125 43.078125 -35.53125 C 42.953125 -35.53125 42.828125 -35.53125 42.703125 -35.53125 C 39.210938 -35.71875 33.953125 -21.972656 26.921875 5.703125 C 19.898438 33.378906 15.269531 53.503906 13.03125 66.078125 C 10.789062 78.660156 7.304688 85.753906 2.578125 87.359375 C 1.898438 87.597656 1.222656 87.796875 0.546875 87.953125 C -0.117188 88.109375 -0.851562 88.03125 -1.65625 87.71875 C -2.570312 87.351562 -3.195312 86.800781 -3.53125 86.0625 C -3.875 85.320312 -4.046875 84.617188 -4.046875 83.953125 C -4.046875 83.515625 -4.046875 83.082031 -4.046875 82.65625 C -3.921875 78.363281 -3.492188 74.128906 -2.765625 69.953125 C 2.816406 39.703125 10.519531 10.1875 20.34375 -18.59375 C 20.644531 -19.507812 20.984375 -20.519531 21.359375 -21.625 C 22.210938 -24.144531 22.976562 -26.691406 23.65625 -29.265625 C 24.457031 -32.273438 23.257812 -33.71875 20.0625 -33.59375 C 13.800781 -33.289062 7.632812 -32.894531 1.5625 -32.40625 C 1.195312 -32.34375 0.800781 -32.28125 0.375 -32.21875 C -4.226562 -31.90625 -8.894531 -31.566406 -13.625 -31.203125 C -22.394531 -30.460938 -31.171875 -29.816406 -39.953125 -29.265625 C -40.078125 -29.265625 -40.195312 -29.265625 -40.3125 -29.265625 C -45.59375 -28.597656 -50.929688 -28.816406 -56.328125 -29.921875 C -56.878906 -30.035156 -57.414062 -30.257812 -57.9375 -30.59375 C -58.46875 -30.9375 -58.703125 -31.445312 -58.640625 -32.125 C -58.578125 -33.351562 -58.144531 -34.304688 -57.34375 -34.984375 C -56.550781 -35.648438 -55.675781 -36.078125 -54.71875 -36.265625 C -53.769531 -36.453125 -52.804688 -36.546875 -51.828125 -36.546875 C -51.453125 -36.546875 -51.113281 -36.546875 -50.8125 -36.546875 C -42.707031 -37.222656 -34.546875 -37.863281 -26.328125 -38.46875 C -11.109375 -39.632812 4.203125 -40.648438 19.609375 -41.515625 C 25.804688 -41.878906 29.945312 -44.914062 32.03125 -50.625 C 49.28125 -97.9375 69.5625 -143.71875 92.875 -187.96875 C 100.488281 -202.445312 108.679688 -216.648438 117.453125 -230.578125 C 126.222656 -244.515625 135.644531 -257.832031 145.71875 -270.53125 C 154.550781 -281.695312 164.304688 -291.945312 174.984375 -301.28125 C 180.878906 -306.375 187.535156 -310.453125 194.953125 -313.515625 C 198.765625 -315.046875 202.816406 -315.875 207.109375 -316 C 214.960938 -316.1875 221.679688 -313.054688 227.265625 -306.609375 C 231.929688 -301.148438 235.492188 -295.171875 237.953125 -288.671875 C 242.546875 -276.390625 245.734375 -263.898438 247.515625 -251.203125 C 250.273438 -231.628906 251.929688 -211.992188 252.484375 -192.296875 C 253.035156 -171.921875 253.203125 -151.546875 252.984375 -131.171875 C 252.773438 -110.796875 252.488281 -90.484375 252.125 -70.234375 C 252.125 -69.804688 252.09375 -69.375 252.03125 -68.9375 C 251.96875 -68.019531 251.90625 -67.101562 251.84375 -66.1875 C 251.601562 -63.175781 251.757812 -60.320312 252.3125 -57.625 C 253.226562 -56.945312 254.128906 -56.546875 255.015625 -56.421875 C 255.910156 -56.296875 256.753906 -56.265625 257.546875 -56.328125 C 258.648438 -56.390625 259.726562 -56.207031 260.78125 -55.78125 Z M 236.9375 -88.453125 C 237.0625 -92.078125 237.125 -95.703125 237.125 -99.328125 C 237.125 -117.859375 237.015625 -136.40625 236.796875 -154.96875 C 236.578125 -173.53125 235.945312 -192.109375 234.90625 -210.703125 C 233.925781 -228.679688 231.75 -246.660156 228.375 -264.640625 C 226.78125 -273.109375 224.234375 -281.453125 220.734375 -289.671875 C 218.828125 -294.148438 216.21875 -298.171875 212.90625 -301.734375 C 208.363281 -306.703125 203.207031 -308.144531 197.4375 -306.0625 C 192.71875 -304.34375 188.484375 -301.828125 184.734375 -298.515625 C 177.804688 -292.378906 171.304688 -285.660156 165.234375 -278.359375 C 156.023438 -267.429688 147.507812 -255.953125 139.6875 -243.921875 C 131.863281 -231.898438 124.515625 -219.476562 117.640625 -206.65625 C 104.691406 -182.53125 92.644531 -157.8125 81.5 -132.5 C 70.363281 -107.1875 60.007812 -81.429688 50.4375 -55.234375 C 50.257812 -54.796875 50.078125 -54.394531 49.890625 -54.03125 C 49.398438 -52.925781 49.0625 -51.5 48.875 -49.75 C 48.695312 -48 49.800781 -47.1875 52.1875 -47.3125 C 161.300781 -53.507812 220.703125 -56.820312 230.390625 -57.25 C 233.097656 -57.375 234.863281 -57.832031 235.6875 -58.625 C 236.519531 -59.425781 236.96875 -61.269531 237.03125 -64.15625 C 237.09375 -70.71875 237.0625 -77.316406 236.9375 -83.953125 C 236.9375 -85.421875 236.9375 -86.921875 236.9375 -88.453125 Z M 236.9375 -88.453125 "/></g></g></g><g fill="#737373" fill-opacity="1"><g transform="translate(1131.567989, 443.895066)"><g><path d="M 62.78125 -34.984375 C 62.101562 -31.054688 60.753906 -27.40625 58.734375 -24.03125 C 53.453125 -15.800781 45.960938 -12.546875 36.265625 -14.265625 C 32.460938 -15.242188 30.023438 -17.113281 28.953125 -19.875 C 27.878906 -22.644531 28.414062 -25.71875 30.5625 -29.09375 C 33.570312 -33.019531 37.285156 -35.929688 41.703125 -37.828125 C 43.359375 -38.628906 44.859375 -39.210938 46.203125 -39.578125 C 46.878906 -39.890625 47.679688 -40.164062 48.609375 -40.40625 C 50.378906 -41.382812 51.328125 -43.253906 51.453125 -46.015625 C 51.578125 -48.785156 50.929688 -51.550781 49.515625 -54.3125 C 48.109375 -57.070312 46.144531 -58.957031 43.625 -59.96875 C 41.113281 -60.976562 38.109375 -60.070312 34.609375 -57.25 C 31.234375 -54.125 28.6875 -50.472656 26.96875 -46.296875 C 22.914062 -37.953125 20.125 -29.175781 18.59375 -19.96875 C 15.894531 -3.769531 14.023438 12.425781 12.984375 28.625 C 12.546875 36.175781 11.804688 43.664062 10.765625 51.09375 C 10.335938 54.21875 10 57.40625 9.75 60.65625 C 9.570312 61.695312 9.296875 62.769531 8.921875 63.875 C 8.367188 65.90625 6.867188 66.765625 4.421875 66.453125 C 1.898438 66.335938 0.550781 65.203125 0.375 63.046875 C 0.25 60.773438 0.25 58.476562 0.375 56.15625 C 0.375 55.601562 0.375 55.140625 0.375 54.765625 C 0.550781 51.941406 0.703125 49.085938 0.828125 46.203125 C 0.953125 41.109375 1.078125 36.046875 1.203125 31.015625 C 1.503906 10.523438 1.378906 -10.117188 0.828125 -30.921875 C 0.703125 -38.722656 0.550781 -46.425781 0.375 -54.03125 C 0.375 -54.832031 0.375 -55.628906 0.375 -56.421875 C 0.125 -59.117188 0.273438 -61.753906 0.828125 -64.328125 C 1.378906 -66.910156 3.066406 -68.390625 5.890625 -68.765625 C 8.835938 -69.066406 10.648438 -67.710938 11.328125 -64.703125 C 11.328125 -64.460938 11.328125 -64.1875 11.328125 -63.875 C 12.304688 -58.113281 13.191406 -50.503906 13.984375 -41.046875 C 16.140625 -47.367188 18.84375 -52.460938 22.09375 -56.328125 C 25.34375 -60.203125 29.175781 -63.054688 33.59375 -64.890625 C 37.28125 -66.546875 41.070312 -67.203125 44.96875 -66.859375 C 48.863281 -66.523438 52.40625 -64.929688 55.59375 -62.078125 C 58.789062 -59.234375 60.972656 -54.988281 62.140625 -49.34375 C 62.691406 -46.882812 62.90625 -42.097656 62.78125 -34.984375 Z M 42.53125 -20.15625 C 44.976562 -21.507812 46.878906 -23.304688 48.234375 -25.546875 C 49.585938 -27.785156 50.289062 -29.75 50.34375 -31.4375 C 50.40625 -33.125 49.703125 -33.753906 48.234375 -33.328125 C 44.429688 -31.847656 41.820312 -29.925781 40.40625 -27.5625 C 39 -25.207031 38.523438 -23.1875 38.984375 -21.5 C 39.441406 -19.8125 40.625 -19.363281 42.53125 -20.15625 Z M 42.53125 -20.15625 "/></g></g></g><g fill="#737373" fill-opacity="1"><g transform="translate(1203.456408, 443.895066)"><g><path d="M 62.78125 -34.984375 C 62.101562 -31.054688 60.753906 -27.40625 58.734375 -24.03125 C 53.453125 -15.800781 45.960938 -12.546875 36.265625 -14.265625 C 32.460938 -15.242188 30.023438 -17.113281 28.953125 -19.875 C 27.878906 -22.644531 28.414062 -25.71875 30.5625 -29.09375 C 33.570312 -33.019531 37.285156 -35.929688 41.703125 -37.828125 C 43.359375 -38.628906 44.859375 -39.210938 46.203125 -39.578125 C 46.878906 -39.890625 47.679688 -40.164062 48.609375 -40.40625 C 50.378906 -41.382812 51.328125 -43.253906 51.453125 -46.015625 C 51.578125 -48.785156 50.929688 -51.550781 49.515625 -54.3125 C 48.109375 -57.070312 46.144531 -58.957031 43.625 -59.96875 C 41.113281 -60.976562 38.109375 -60.070312 34.609375 -57.25 C 31.234375 -54.125 28.6875 -50.472656 26.96875 -46.296875 C 22.914062 -37.953125 20.125 -29.175781 18.59375 -19.96875 C 15.894531 -3.769531 14.023438 12.425781 12.984375 28.625 C 12.546875 36.175781 11.804688 43.664062 10.765625 51.09375 C 10.335938 54.21875 10 57.40625 9.75 60.65625 C 9.570312 61.695312 9.296875 62.769531 8.921875 63.875 C 8.367188 65.90625 6.867188 66.765625 4.421875 66.453125 C 1.898438 66.335938 0.550781 65.203125 0.375 63.046875 C 0.25 60.773438 0.25 58.476562 0.375 56.15625 C 0.375 55.601562 0.375 55.140625 0.375 54.765625 C 0.550781 51.941406 0.703125 49.085938 0.828125 46.203125 C 0.953125 41.109375 1.078125 36.046875 1.203125 31.015625 C 1.503906 10.523438 1.378906 -10.117188 0.828125 -30.921875 C 0.703125 -38.722656 0.550781 -46.425781 0.375 -54.03125 C 0.375 -54.832031 0.375 -55.628906 0.375 -56.421875 C 0.125 -59.117188 0.273438 -61.753906 0.828125 -64.328125 C 1.378906 -66.910156 3.066406 -68.390625 5.890625 -68.765625 C 8.835938 -69.066406 10.648438 -67.710938 11.328125 -64.703125 C 11.328125 -64.460938 11.328125 -64.1875 11.328125 -63.875 C 12.304688 -58.113281 13.191406 -50.503906 13.984375 -41.046875 C 16.140625 -47.367188 18.84375 -52.460938 22.09375 -56.328125 C 25.34375 -60.203125 29.175781 -63.054688 33.59375 -64.890625 C 37.28125 -66.546875 41.070312 -67.203125 44.96875 -66.859375 C 48.863281 -66.523438 52.40625 -64.929688 55.59375 -62.078125 C 58.789062 -59.234375 60.972656 -54.988281 62.140625 -49.34375 C 62.691406 -46.882812 62.90625 -42.097656 62.78125 -34.984375 Z M 42.53125 -20.15625 C 44.976562 -21.507812 46.878906 -23.304688 48.234375 -25.546875 C 49.585938 -27.785156 50.289062 -29.75 50.34375 -31.4375 C 50.40625 -33.125 49.703125 -33.753906 48.234375 -33.328125 C 44.429688 -31.847656 41.820312 -29.925781 40.40625 -27.5625 C 39 -25.207031 38.523438 -23.1875 38.984375 -21.5 C 39.441406 -19.8125 40.625 -19.363281 42.53125 -20.15625 Z M 42.53125 -20.15625 "/></g></g></g></svg>